<?xml version="1.0" standalone="no"?>
<!DOCTYPE svg PUBLIC "-//W3C//DTD SVG 20010904//EN"
 "http://www.w3.org/TR/2001/REC-SVG-20010904/DTD/svg10.dtd">
<svg version="1.0" xmlns="http://www.w3.org/2000/svg"
 width="512.000000pt" height="512.000000pt" viewBox="0 0 512.000000 512.000000"
 preserveAspectRatio="xMidYMid meet">
<metadata>
Created by potrace 1.11, written by Peter Selinger 2001-2013
</metadata>
<g transform="translate(0.000000,512.000000) scale(0.100000,-0.100000)"
fill="#000000" stroke="none">
<path d="M3455 5085 c-234 -37 -460 -132 -644 -270 -71 -54 -407 -384 -1277
-1256 -650 -651 -1201 -1211 -1226 -1244 -369 -497 -378 -1177 -22 -1687 81
-116 248 -279 369 -360 209 -140 427 -216 680 -238 358 -31 721 76 1000 295
44 35 616 600 1271 1257 1021 1023 1199 1205 1248 1281 162 246 246 518 246
802 0 390 -145 739 -420 1015 -187 188 -405 312 -670 381 -150 38 -396 49
-555 24z m330 -396 c234 -29 443 -130 607 -294 304 -304 387 -755 213 -1150
-67 -151 -116 -207 -621 -715 l-484 -485 -555 555 -555 555 -943 -943 -944
-944 -14 49 c-9 31 -14 93 -13 178 1 158 25 251 109 420 112 227 69 179 1260
1379 605 609 1133 1134 1173 1167 129 104 246 164 403 204 125 33 234 40 364
24z"/>
</g>
</svg>
